:FULLY-SPECIFIED
:FORCE-ALL-JOINTS-BE-3DOF
:DEGREES
204
root 4.89678 15.2178 -25.4613 5.767 3.53731 4.27394
lfemur 4.1145 -10.7018 4.34591
ltibia 2.02239 -0 0
lfoot -19.1323 -23.3089 -0.58709
ltoes 51.3987 -0 0
rfemur -17.9501 -11.8504 -8.829
rtibia 35.58 -0 0
rfoot -26.8083 6.92034 1.18154
rtoes 48.4317 -0 0
lowerback -3.80161 -1.93173 -0.983791
upperback -0.528464 -2.43253 -6.2927
thorax 1.283 -1.20155 -6.15691
lowerneck -11.1077 -0.8909 2.58461
upperneck 3.47437 -1.8868 3.56413
head 3.11322 -0.715363 0.574961
lclavicle 1.57206e-14 6.8912e-15 0
lhumerus -46.0043 -43.9555 99.3506
lradius 47.462 -0 0
lwrist 18.1259 0 0
lhand 36.3082 26.9651 -0.0505052
lfingers 7.12502 0 0
lthumb 56.1073 34.8793 0.00605452
rclavicle 1.57206e-14 6.8912e-15 0
rhumerus -31.9097 48.0066 -39.1191
rradius 117.392 -0 0
rwrist -17.932 0 0
rhand 20.8367 -13.0572 5.28894
rfingers 7.12502 0 0
rthumb 47.5072 1.08572 -19.8323
205
root 4.87245 15.1927 -25.4733 5.63095 3.22261 4.15118
lfemur 4.12012 -10.7828 4.35421
ltibia 1.68794 -0 0
lfoot -18.678 -22.9908 -0.615078
ltoes 50.3256 -0 0
rfemur -17.3979 -11.6134 -8.59312
rtibia 34.3594 -0 0
rfoot -26.4427 6.99841 1.27383
rtoes 47.247 -0 0
lowerback -3.74398 -1.84976 -0.947555
upperback -0.52105 -2.32642 -6.14016
thorax 1.26605 -1.14789 -6.01785
lowerneck -10.8246 -0.807565 2.53882
upperneck 3.39116 -1.76187 3.44943
head 3.03265 -0.659042 0.552533
lclavicle 1.35032e-14 7.95139e-15 0
lhumerus -44.4181 -44.1361 96.5069
lradius 46.2079 -0 0
lwrist 17.6466 0 0
lhand 35.2913 26.202 -0.0421168
lfingers 7.12502 0 0
lthumb 54.6109 33.8822 0.00622148
rclavicle 1.35032e-14 7.95139e-15 0
rhumerus -30.4266 47.8303 -37.2948
rradius 116.26 -0 0
rwrist -17.5986 0 0
rhand 21.2023 -13.7446 5.59111
rfingers 7.12502 0 0
rthumb 48.2291 3.32084 -21.7258
206
root 4.84813 15.1676 -25.4852 5.5696 2.95811 4.08051
lfemur 4.15985 -10.9149 4.39252
ltibia 1.4413 -0 0
lfoot -18.5013 -22.8503 -0.650087
ltoes 49.7611 -0 0
rfemur -17.1244 -11.5445 -8.45559
rtibia 33.6418 -0 0
rfoot -26.351 7.17473 1.365
rtoes 46.6403 -0 0
lowerback -3.71632 -1.79288 -0.922571
upperback -0.519798 -2.25266 -6.06113
thorax 1.25628 -1.11055 -5.9498
lowerneck -10.6694 -0.733661 2.53691
upperneck 3.34669 -1.65877 3.37226
head 2.98773 -0.611213 0.533256
lclavicle 1.12858e-14 9.01157e-15 0
lhumerus -43.5602 -44.2249 94.8412
lradius 45.5149 -0 0
lwrist 17.4101 0 0
lhand 34.691 25.7616 -0.0338702
lfingers 7.12502 0 0
lthumb 53.7342 33.3259 0.00587279
rclavicle 1.12858e-14 9.01157e-15 0
rhumerus -29.155 47.5738 -35.7897
rradius 115.481 -0 0
rwrist -17.4808 0 0
rhand 21.7447 -14.0687 5.70086
rfingers 7.12502 0 0
rthumb 48.9513 5.00255 -23.1795
207
root 4.82381 15.1425 -25.4972 5.59761 2.74744 4.07262
lfemur 4.24677 -11.1185 4.46931
ltibia 1.29012 -0 0
lfoot -18.6605 -22.9308 -0.69443
ltoes 49.8336 -0 0
rfemur -17.1842 -11.6789 -8.43623
rtibia 33.5278 -0 0
rfoot -26.5964 7.47619 1.45677
rtoes 46.7439 -0 0
lowerback -3.72561 -1.76524 -0.910968
upperback -0.526062 -2.21663 -6.07088
thorax 1.25557 -1.09221 -5.96774
lowerneck -10.6673 -0.669483 2.58852
upperneck 3.34884 -1.5799 3.33948
head 2.98546 -0.57258 0.517511
lclavicle 9.06837e-15 1.00718e-14 0
lhumerus -43.5728 -44.2635 94.7659
lradius 45.5092 -0 0
lwrist 17.4655 0 0
lhand 34.5965 25.7098 -0.0259518
lfingers 7.12502 0 0
lthumb 53.6272 33.3019 0.00493759
rclavicle 9.06837e-15 1.00718e-14 0
rhumerus -28.1492 47.251 -34.6824
rradius 115.219 -0 0
rwrist -17.6241 0 0
rhand 22.4761 -13.945 5.57803
rfingers 7.12502 0 0
rthumb 49.6544 5.93064 -24.0812
208
root 4.79949 15.1175 -25.5091 5.73168 2.59416 4.13942
lfemur 4.39499 -11.4143 4.59361
ltibia 1.24466 -0 0
lfoot -19.2216 -23.2764 -0.750249
ltoes 50.6654 -0 0
rfemur -17.6406 -12.0568 -8.55696
rtibia 34.125 -0 0
rfoot -27.246 7.93432 1.55073
rtoes 47.6898 -0 0
lowerback -3.7792 -1.77147 -0.915052
upperback -0.541376 -2.22423 -6.18642
thorax 1.26571 -1.09584 -6.0883
lowerneck -10.8462 -0.615115 2.70497
upperneck 3.40634 -1.52764 3.35853
head 3.03366 -0.543796 0.505555
lclavicle 6.85097e-15 1.11319e-14 0
lhumerus -44.6172 -44.2428 96.5772
lradius 46.3161 -0 0
lwrist 17.8675 0 0
lhand 35.1003 26.1173 -0.0185272
lfingers 7.12502 0 0
lthumb 54.431 33.9071 0.00335183
rclavicle 6.85097e-15 1.11319e-14 0
rhumerus -27.4611 46.872 -34.0451
rradius 115.586 -0 0
rwrist -18.0792 0 0
rhand 23.3988 -13.3044 5.18137
rfingers 7.12502 0 0
rthumb 50.3144 5.92578 -24.3187
